# xmcd
#
# Track frame offsets: 
#        150
#        21403
#        40223
#        52388
#        70178
#        89579
#        105337
#        138221
#        156475
#        177975
#        196574
#
# Disc length: 2988 seconds
#
# Revision: 1
# Processed by: cddbd v1.5.2PL0 Copyright (c) Steve Scherf et al.
# Submitted via: ExactAudioCopy v0.99pb4
#
DISCID=970baa0b
DTITLE=Omar and The Howlers - Live At The Opera House Austin, Texas, Aug
DTITLE=ust 30, 1987
DYEAR=1900
DGENRE=Blues
TTITLE0=Mississippi Hoo Doo Man
TTITLE1=Don't You Know
TTITLE2=You Ain't Foolin' Nobody
TTITLE3=Big Legs
TTITLE4=Dancing In The Canebrake
TTITLE5=Don't Rock Me The Wrong Way
TTITLE6=Lee Anne
TTITLE7=Same Old Grind
TTITLE8=Shadow Man
TTITLE9=Hard Times In The Land Of Plenty
TTITLE10=Rock And Roll Ball
EXTD=
EXTT0=
EXTT1=
EXTT2=
EXTT3=
EXTT4=
EXTT5=
EXTT6=
EXTT7=
EXTT8=
EXTT9=
EXTT10=
PLAYORDER=
